<svg width="105" height="78" viewBox="0 0 105 78" fill="none" xmlns="http://www.w3.org/2000/svg">
<g filter="url(#filter0_d_417_792)">
<mask id="path-1-outside-1_417_792" maskUnits="userSpaceOnUse" x="-2.89312" y="-6.89898" width="110.657" height="95.1004" fill="black">
<rect fill="white" x="-2.89312" y="-6.89898" width="110.657" height="95.1004"/>
<path d="M79.3326 28.3132L80.4263 27.3441L81.5645 28.5332L82.051 29.125C83.2033 30.6349 85.4917 34.3174 84.8772 39.2462C86.0898 39.3487 87.2849 39.5577 88.4522 39.8704C91.2226 40.6128 92.9127 41.7551 93.8278 42.5731L94.2934 43.0148L94.5836 43.3428L95.3576 44.4176L94.7372 45.3634C93.8239 46.6433 92.6462 47.712 91.2841 48.4973C89.3639 49.6454 86.2273 50.7678 81.9663 49.8818L81.0358 49.6603L80.268 49.4546C76.9903 54.0089 72.8814 59.03 67.1759 62.995C63.7894 65.3522 60.0419 67.1426 56.0803 68.296C51.3453 69.6251 46.416 70.1254 41.5105 69.7745C37.9957 69.5278 34.5165 68.9403 31.1212 68.0194C23.5986 66.0037 17.3583 62.7302 13.976 59.0215C10.953 55.7148 9.17039 51.1613 8.67032 45.4946C8.28611 40.3361 8.80812 35.1502 10.2127 30.1718C10.3758 29.5289 10.764 28.9659 11.3069 28.5849C11.8497 28.2039 12.5112 28.0302 13.1712 28.0953L13.5309 28.1639L68.2124 42.8157L68.6995 42.9073L69.4947 43.0314C70.8701 43.2109 72.9991 43.3588 74.643 42.9096C73.6962 39.6365 74.0964 36.2129 75.8299 32.9185C76.5543 31.5447 77.4562 30.272 78.5123 29.1332L79.3326 28.3132ZM28.5607 21.6484L28.7585 21.7404C28.8438 21.8012 28.9139 21.8809 28.9634 21.9733C29.0129 22.0656 29.0405 22.1681 29.044 22.2728L29.0195 22.4887L27.1915 29.3109L27.1034 29.5153C27.0473 29.6046 26.9713 29.6797 26.8813 29.7347C26.7913 29.7897 26.6898 29.8231 26.5847 29.8322L26.3741 29.8092L19.0486 27.8463C18.9126 27.8079 18.7923 27.7272 18.7052 27.6159C18.618 27.5046 18.5686 27.3684 18.564 27.2271L18.5832 27.0099L20.414 20.1773L20.506 19.9795C20.5616 19.889 20.6375 19.8128 20.7278 19.7568C20.8181 19.7009 20.9202 19.6668 21.026 19.6573L21.2367 19.6804L28.5607 21.6484ZM38.6618 24.355L38.8544 24.4455C38.9408 24.506 39.012 24.5857 39.0625 24.6783C39.1129 24.7709 39.1412 24.874 39.145 24.9794L39.1206 25.1952L37.2926 32.0175L37.1992 32.2204C37.1432 32.3098 37.0672 32.3849 36.9772 32.4399C36.8872 32.4949 36.7857 32.5283 36.6806 32.5374L36.4699 32.5143L29.1445 30.5515C29.0088 30.5123 28.889 30.4314 28.802 30.3203C28.715 30.2091 28.6652 30.0733 28.6598 29.9323L28.6777 29.7202L30.5085 22.8876C30.5446 22.7485 30.6227 22.6239 30.7322 22.5309C30.8418 22.4378 30.9773 22.3808 31.1205 22.3677L31.3325 22.3856L38.6618 24.355ZM48.9132 27.1019L49.1058 27.1924C49.1911 27.2533 49.2612 27.333 49.3108 27.4253C49.3603 27.5176 49.3878 27.6201 49.3913 27.7249L49.372 27.9421L47.544 34.7643L47.4507 34.9673C47.3947 35.0566 47.3187 35.1318 47.2287 35.1868C47.1387 35.2418 47.0371 35.2751 46.9321 35.2843L46.7214 35.2612L39.3959 33.2984C39.2599 33.2599 39.1396 33.1792 39.0525 33.0679C38.9654 32.9566 38.9159 32.8205 38.9113 32.6792L38.9358 32.4633L40.7665 25.6307L40.8533 25.4315C40.9089 25.3411 40.9849 25.2648 41.0752 25.2089C41.1654 25.1529 41.2675 25.1189 41.3733 25.1094L41.584 25.1324L48.9132 27.1019ZM59.0402 29.8154L59.2328 29.9059C59.3192 29.9664 59.3905 30.046 59.4409 30.1387C59.4913 30.2313 59.5196 30.3344 59.5235 30.4398L59.5042 30.657L57.6762 37.4792C57.6401 37.6183 57.562 37.7429 57.4524 37.836C57.3429 37.929 57.2073 37.986 57.0642 37.9992L56.8484 37.9747L49.5281 36.0133C49.3921 35.9748 49.2718 35.8941 49.1846 35.7828C49.0975 35.6715 49.0481 35.5354 49.0434 35.3941L49.0679 35.1782L50.8987 28.3456L50.9854 28.1464C51.0411 28.056 51.117 27.9797 51.2073 27.9238C51.2976 27.8679 51.3997 27.8338 51.5055 27.8243L51.7213 27.8487L59.0468 29.8116L59.0402 29.8154ZM69.2606 32.5539L69.4532 32.6445C69.5396 32.7049 69.6108 32.7846 69.6613 32.8772C69.7117 32.9698 69.74 33.0729 69.7438 33.1783L69.7194 33.3942L67.8914 40.2164C67.8553 40.3555 67.7771 40.4801 67.6676 40.5731C67.5581 40.6662 67.4225 40.7232 67.2794 40.7363L67.0687 40.7133L59.7433 38.7504C59.6072 38.712 59.4869 38.6313 59.3998 38.52C59.3127 38.4087 59.2632 38.2725 59.2586 38.1312L59.2831 37.9154L61.1139 31.0828L61.2006 30.8836C61.2562 30.7931 61.3322 30.7169 61.4225 30.6609C61.5128 30.605 61.6149 30.5709 61.7206 30.5614L61.9365 30.5859L69.2568 32.5473L69.2606 32.5539ZM41.2815 14.5365L41.4793 14.6284C41.5641 14.6886 41.6341 14.7674 41.6838 14.8588C41.7336 14.9502 41.7617 15.0518 41.7662 15.1557L41.7455 15.3782L39.9175 22.2004C39.8814 22.3395 39.8032 22.4641 39.6937 22.5571C39.5842 22.6502 39.4486 22.7072 39.3055 22.7203L39.0934 22.7024L31.7732 20.741C31.6364 20.7008 31.516 20.6181 31.4294 20.5049C31.3428 20.3917 31.2944 20.2539 31.2913 20.1114L31.3106 19.8942L33.1386 13.0719C33.1755 12.934 33.2538 12.8107 33.363 12.7186C33.4722 12.6266 33.607 12.5702 33.7492 12.5572L33.9612 12.5751L41.2815 14.5365ZM51.533 17.2834L51.7308 17.3753C51.8156 17.4355 51.8856 17.5143 51.9353 17.6057C51.985 17.6971 52.0132 17.7986 52.0176 17.9026L51.997 18.125L50.169 24.9472C50.1329 25.0864 50.0547 25.2109 49.9452 25.304C49.8357 25.3971 49.7001 25.4541 49.557 25.4672L49.3449 25.4493L42.0247 23.4879C41.8879 23.4477 41.7675 23.365 41.6809 23.2518C41.5942 23.1386 41.5459 23.0008 41.5428 22.8583L41.5673 22.6424L43.3953 15.8202L43.482 15.621C43.5381 15.5317 43.6141 15.4566 43.7041 15.4016C43.7941 15.3466 43.8956 15.3132 44.0006 15.304L44.2127 15.3219L51.533 17.2834ZM61.6651 19.9983C61.9453 20.0734 62.1325 20.3293 62.1498 20.6175L62.1291 20.8399L60.3011 27.6621C60.265 27.8013 60.1869 27.9259 60.0774 28.0189C59.9678 28.112 59.8323 28.169 59.6892 28.1821L59.4719 28.1628L52.1568 26.2028C52.0201 26.1626 51.8997 26.0799 51.813 25.9667C51.7264 25.8535 51.678 25.7157 51.6749 25.5732L51.6994 25.3573L53.5274 18.5351L53.6142 18.3359C53.6702 18.2466 53.7462 18.1715 53.8362 18.1165C53.9262 18.0615 54.0277 18.0281 54.1328 18.0189L54.3501 18.0382L61.6755 20.0011L61.6651 19.9983ZM64.2952 10.1826C64.5754 10.2577 64.7626 10.5136 64.7799 10.8018L64.7606 11.0191L62.9312 17.8465C62.8951 17.9856 62.817 18.1102 62.7075 18.2032C62.5979 18.2963 62.4624 18.3533 62.3193 18.3664L62.1034 18.3419L54.7883 16.3819C54.6523 16.3435 54.532 16.2628 54.4449 16.1514C54.3577 16.0401 54.3083 15.904 54.3037 15.7627L54.3281 15.5468L56.1589 8.71424L56.2457 8.51506C56.3017 8.42572 56.3777 8.3506 56.4677 8.2956C56.5577 8.2406 56.6592 8.20721 56.7643 8.19807L56.975 8.22116L64.3004 10.184L64.2952 10.1826Z"/>
</mask>
<path d="M79.3326 28.3132L80.4263 27.3441L81.5645 28.5332L82.051 29.125C83.2033 30.6349 85.4917 34.3174 84.8772 39.2462C86.0898 39.3487 87.2849 39.5577 88.4522 39.8704C91.2226 40.6128 92.9127 41.7551 93.8278 42.5731L94.2934 43.0148L94.5836 43.3428L95.3576 44.4176L94.7372 45.3634C93.8239 46.6433 92.6462 47.712 91.2841 48.4973C89.3639 49.6454 86.2273 50.7678 81.9663 49.8818L81.0358 49.6603L80.268 49.4546C76.9903 54.0089 72.8814 59.03 67.1759 62.995C63.7894 65.3522 60.0419 67.1426 56.0803 68.296C51.3453 69.6251 46.416 70.1254 41.5105 69.7745C37.9957 69.5278 34.5165 68.9403 31.1212 68.0194C23.5986 66.0037 17.3583 62.7302 13.976 59.0215C10.953 55.7148 9.17039 51.1613 8.67032 45.4946C8.28611 40.3361 8.80812 35.1502 10.2127 30.1718C10.3758 29.5289 10.764 28.9659 11.3069 28.5849C11.8497 28.2039 12.5112 28.0302 13.1712 28.0953L13.5309 28.1639L68.2124 42.8157L68.6995 42.9073L69.4947 43.0314C70.8701 43.2109 72.9991 43.3588 74.643 42.9096C73.6962 39.6365 74.0964 36.2129 75.8299 32.9185C76.5543 31.5447 77.4562 30.272 78.5123 29.1332L79.3326 28.3132ZM28.5607 21.6484L28.7585 21.7404C28.8438 21.8012 28.9139 21.8809 28.9634 21.9733C29.0129 22.0656 29.0405 22.1681 29.044 22.2728L29.0195 22.4887L27.1915 29.3109L27.1034 29.5153C27.0473 29.6046 26.9713 29.6797 26.8813 29.7347C26.7913 29.7897 26.6898 29.8231 26.5847 29.8322L26.3741 29.8092L19.0486 27.8463C18.9126 27.8079 18.7923 27.7272 18.7052 27.6159C18.618 27.5046 18.5686 27.3684 18.564 27.2271L18.5832 27.0099L20.414 20.1773L20.506 19.9795C20.5616 19.889 20.6375 19.8128 20.7278 19.7568C20.8181 19.7009 20.9202 19.6668 21.026 19.6573L21.2367 19.6804L28.5607 21.6484ZM38.6618 24.355L38.8544 24.4455C38.9408 24.506 39.012 24.5857 39.0625 24.6783C39.1129 24.7709 39.1412 24.874 39.145 24.9794L39.1206 25.1952L37.2926 32.0175L37.1992 32.2204C37.1432 32.3098 37.0672 32.3849 36.9772 32.4399C36.8872 32.4949 36.7857 32.5283 36.6806 32.5374L36.4699 32.5143L29.1445 30.5515C29.0088 30.5123 28.889 30.4314 28.802 30.3203C28.715 30.2091 28.6652 30.0733 28.6598 29.9323L28.6777 29.7202L30.5085 22.8876C30.5446 22.7485 30.6227 22.6239 30.7322 22.5309C30.8418 22.4378 30.9773 22.3808 31.1205 22.3677L31.3325 22.3856L38.6618 24.355ZM48.9132 27.1019L49.1058 27.1924C49.1911 27.2533 49.2612 27.333 49.3108 27.4253C49.3603 27.5176 49.3878 27.6201 49.3913 27.7249L49.372 27.9421L47.544 34.7643L47.4507 34.9673C47.3947 35.0566 47.3187 35.1318 47.2287 35.1868C47.1387 35.2418 47.0371 35.2751 46.9321 35.2843L46.7214 35.2612L39.3959 33.2984C39.2599 33.2599 39.1396 33.1792 39.0525 33.0679C38.9654 32.9566 38.9159 32.8205 38.9113 32.6792L38.9358 32.4633L40.7665 25.6307L40.8533 25.4315C40.9089 25.3411 40.9849 25.2648 41.0752 25.2089C41.1654 25.1529 41.2675 25.1189 41.3733 25.1094L41.584 25.1324L48.9132 27.1019ZM59.0402 29.8154L59.2328 29.9059C59.3192 29.9664 59.3905 30.046 59.4409 30.1387C59.4913 30.2313 59.5196 30.3344 59.5235 30.4398L59.5042 30.657L57.6762 37.4792C57.6401 37.6183 57.562 37.7429 57.4524 37.836C57.3429 37.929 57.2073 37.986 57.0642 37.9992L56.8484 37.9747L49.5281 36.0133C49.3921 35.9748 49.2718 35.8941 49.1846 35.7828C49.0975 35.6715 49.0481 35.5354 49.0434 35.3941L49.0679 35.1782L50.8987 28.3456L50.9854 28.1464C51.0411 28.056 51.117 27.9797 51.2073 27.9238C51.2976 27.8679 51.3997 27.8338 51.5055 27.8243L51.7213 27.8487L59.0468 29.8116L59.0402 29.8154ZM69.2606 32.5539L69.4532 32.6445C69.5396 32.7049 69.6108 32.7846 69.6613 32.8772C69.7117 32.9698 69.74 33.0729 69.7438 33.1783L69.7194 33.3942L67.8914 40.2164C67.8553 40.3555 67.7771 40.4801 67.6676 40.5731C67.5581 40.6662 67.4225 40.7232 67.2794 40.7363L67.0687 40.7133L59.7433 38.7504C59.6072 38.712 59.4869 38.6313 59.3998 38.52C59.3127 38.4087 59.2632 38.2725 59.2586 38.1312L59.2831 37.9154L61.1139 31.0828L61.2006 30.8836C61.2562 30.7931 61.3322 30.7169 61.4225 30.6609C61.5128 30.605 61.6149 30.5709 61.7206 30.5614L61.9365 30.5859L69.2568 32.5473L69.2606 32.5539ZM41.2815 14.5365L41.4793 14.6284C41.5641 14.6886 41.6341 14.7674 41.6838 14.8588C41.7336 14.9502 41.7617 15.0518 41.7662 15.1557L41.7455 15.3782L39.9175 22.2004C39.8814 22.3395 39.8032 22.4641 39.6937 22.5571C39.5842 22.6502 39.4486 22.7072 39.3055 22.7203L39.0934 22.7024L31.7732 20.741C31.6364 20.7008 31.516 20.6181 31.4294 20.5049C31.3428 20.3917 31.2944 20.2539 31.2913 20.1114L31.3106 19.8942L33.1386 13.0719C33.1755 12.934 33.2538 12.8107 33.363 12.7186C33.4722 12.6266 33.607 12.5702 33.7492 12.5572L33.9612 12.5751L41.2815 14.5365ZM51.533 17.2834L51.7308 17.3753C51.8156 17.4355 51.8856 17.5143 51.9353 17.6057C51.985 17.6971 52.0132 17.7986 52.0176 17.9026L51.997 18.125L50.169 24.9472C50.1329 25.0864 50.0547 25.2109 49.9452 25.304C49.8357 25.3971 49.7001 25.4541 49.557 25.4672L49.3449 25.4493L42.0247 23.4879C41.8879 23.4477 41.7675 23.365 41.6809 23.2518C41.5942 23.1386 41.5459 23.0008 41.5428 22.8583L41.5673 22.6424L43.3953 15.8202L43.482 15.621C43.5381 15.5317 43.6141 15.4566 43.7041 15.4016C43.7941 15.3466 43.8956 15.3132 44.0006 15.304L44.2127 15.3219L51.533 17.2834ZM61.6651 19.9983C61.9453 20.0734 62.1325 20.3293 62.1498 20.6175L62.1291 20.8399L60.3011 27.6621C60.265 27.8013 60.1869 27.9259 60.0774 28.0189C59.9678 28.112 59.8323 28.169 59.6892 28.1821L59.4719 28.1628L52.1568 26.2028C52.0201 26.1626 51.8997 26.0799 51.813 25.9667C51.7264 25.8535 51.678 25.7157 51.6749 25.5732L51.6994 25.3573L53.5274 18.5351L53.6142 18.3359C53.6702 18.2466 53.7462 18.1715 53.8362 18.1165C53.9262 18.0615 54.0277 18.0281 54.1328 18.0189L54.3501 18.0382L61.6755 20.0011L61.6651 19.9983ZM64.2952 10.1826C64.5754 10.2577 64.7626 10.5136 64.7799 10.8018L64.7606 11.0191L62.9312 17.8465C62.8951 17.9856 62.817 18.1102 62.7075 18.2032C62.5979 18.2963 62.4624 18.3533 62.3193 18.3664L62.1034 18.3419L54.7883 16.3819C54.6523 16.3435 54.532 16.2628 54.4449 16.1514C54.3577 16.0401 54.3083 15.904 54.3037 15.7627L54.3281 15.5468L56.1589 8.71424L56.2457 8.51506C56.3017 8.42572 56.3777 8.3506 56.4677 8.2956C56.5577 8.2406 56.6592 8.20721 56.7643 8.19807L56.975 8.22116L64.3004 10.184L64.2952 10.1826Z" fill="#2396ED"/>
<path d="M79.3326 28.3132L80.4263 27.3441L81.5645 28.5332L82.051 29.125C83.2033 30.6349 85.4917 34.3174 84.8772 39.2462C86.0898 39.3487 87.2849 39.5577 88.4522 39.8704C91.2226 40.6128 92.9127 41.7551 93.8278 42.5731L94.2934 43.0148L94.5836 43.3428L95.3576 44.4176L94.7372 45.3634C93.8239 46.6433 92.6462 47.712 91.2841 48.4973C89.3639 49.6454 86.2273 50.7678 81.9663 49.8818L81.0358 49.6603L80.268 49.4546C76.9903 54.0089 72.8814 59.03 67.1759 62.995C63.7894 65.3522 60.0419 67.1426 56.0803 68.296C51.3453 69.6251 46.416 70.1254 41.5105 69.7745C37.9957 69.5278 34.5165 68.9403 31.1212 68.0194C23.5986 66.0037 17.3583 62.7302 13.976 59.0215C10.953 55.7148 9.17039 51.1613 8.67032 45.4946C8.28611 40.3361 8.80812 35.1502 10.2127 30.1718C10.3758 29.5289 10.764 28.9659 11.3069 28.5849C11.8497 28.2039 12.5112 28.0302 13.1712 28.0953L13.5309 28.1639L68.2124 42.8157L68.6995 42.9073L69.4947 43.0314C70.8701 43.2109 72.9991 43.3588 74.643 42.9096C73.6962 39.6365 74.0964 36.2129 75.8299 32.9185C76.5543 31.5447 77.4562 30.272 78.5123 29.1332L79.3326 28.3132ZM28.5607 21.6484L28.7585 21.7404C28.8438 21.8012 28.9139 21.8809 28.9634 21.9733C29.0129 22.0656 29.0405 22.1681 29.044 22.2728L29.0195 22.4887L27.1915 29.3109L27.1034 29.5153C27.0473 29.6046 26.9713 29.6797 26.8813 29.7347C26.7913 29.7897 26.6898 29.8231 26.5847 29.8322L26.3741 29.8092L19.0486 27.8463C18.9126 27.8079 18.7923 27.7272 18.7052 27.6159C18.618 27.5046 18.5686 27.3684 18.564 27.2271L18.5832 27.0099L20.414 20.1773L20.506 19.9795C20.5616 19.889 20.6375 19.8128 20.7278 19.7568C20.8181 19.7009 20.9202 19.6668 21.026 19.6573L21.2367 19.6804L28.5607 21.6484ZM38.6618 24.355L38.8544 24.4455C38.9408 24.506 39.012 24.5857 39.0625 24.6783C39.1129 24.7709 39.1412 24.874 39.145 24.9794L39.1206 25.1952L37.2926 32.0175L37.1992 32.2204C37.1432 32.3098 37.0672 32.3849 36.9772 32.4399C36.8872 32.4949 36.7857 32.5283 36.6806 32.5374L36.4699 32.5143L29.1445 30.5515C29.0088 30.5123 28.889 30.4314 28.802 30.3203C28.715 30.2091 28.6652 30.0733 28.6598 29.9323L28.6777 29.7202L30.5085 22.8876C30.5446 22.7485 30.6227 22.6239 30.7322 22.5309C30.8418 22.4378 30.9773 22.3808 31.1205 22.3677L31.3325 22.3856L38.6618 24.355ZM48.9132 27.1019L49.1058 27.1924C49.1911 27.2533 49.2612 27.333 49.3108 27.4253C49.3603 27.5176 49.3878 27.6201 49.3913 27.7249L49.372 27.9421L47.544 34.7643L47.4507 34.9673C47.3947 35.0566 47.3187 35.1318 47.2287 35.1868C47.1387 35.2418 47.0371 35.2751 46.9321 35.2843L46.7214 35.2612L39.3959 33.2984C39.2599 33.2599 39.1396 33.1792 39.0525 33.0679C38.9654 32.9566 38.9159 32.8205 38.9113 32.6792L38.9358 32.4633L40.7665 25.6307L40.8533 25.4315C40.9089 25.3411 40.9849 25.2648 41.0752 25.2089C41.1654 25.1529 41.2675 25.1189 41.3733 25.1094L41.584 25.1324L48.9132 27.1019ZM59.0402 29.8154L59.2328 29.9059C59.3192 29.9664 59.3905 30.046 59.4409 30.1387C59.4913 30.2313 59.5196 30.3344 59.5235 30.4398L59.5042 30.657L57.6762 37.4792C57.6401 37.6183 57.562 37.7429 57.4524 37.836C57.3429 37.929 57.2073 37.986 57.0642 37.9992L56.8484 37.9747L49.5281 36.0133C49.3921 35.9748 49.2718 35.8941 49.1846 35.7828C49.0975 35.6715 49.0481 35.5354 49.0434 35.3941L49.0679 35.1782L50.8987 28.3456L50.9854 28.1464C51.0411 28.056 51.117 27.9797 51.2073 27.9238C51.2976 27.8679 51.3997 27.8338 51.5055 27.8243L51.7213 27.8487L59.0468 29.8116L59.0402 29.8154ZM69.2606 32.5539L69.4532 32.6445C69.5396 32.7049 69.6108 32.7846 69.6613 32.8772C69.7117 32.9698 69.74 33.0729 69.7438 33.1783L69.7194 33.3942L67.8914 40.2164C67.8553 40.3555 67.7771 40.4801 67.6676 40.5731C67.5581 40.6662 67.4225 40.7232 67.2794 40.7363L67.0687 40.7133L59.7433 38.7504C59.6072 38.712 59.4869 38.6313 59.3998 38.52C59.3127 38.4087 59.2632 38.2725 59.2586 38.1312L59.2831 37.9154L61.1139 31.0828L61.2006 30.8836C61.2562 30.7931 61.3322 30.7169 61.4225 30.6609C61.5128 30.605 61.6149 30.5709 61.7206 30.5614L61.9365 30.5859L69.2568 32.5473L69.2606 32.5539ZM41.2815 14.5365L41.4793 14.6284C41.5641 14.6886 41.6341 14.7674 41.6838 14.8588C41.7336 14.9502 41.7617 15.0518 41.7662 15.1557L41.7455 15.3782L39.9175 22.2004C39.8814 22.3395 39.8032 22.4641 39.6937 22.5571C39.5842 22.6502 39.4486 22.7072 39.3055 22.7203L39.0934 22.7024L31.7732 20.741C31.6364 20.7008 31.516 20.6181 31.4294 20.5049C31.3428 20.3917 31.2944 20.2539 31.2913 20.1114L31.3106 19.8942L33.1386 13.0719C33.1755 12.934 33.2538 12.8107 33.363 12.7186C33.4722 12.6266 33.607 12.5702 33.7492 12.5572L33.9612 12.5751L41.2815 14.5365ZM51.533 17.2834L51.7308 17.3753C51.8156 17.4355 51.8856 17.5143 51.9353 17.6057C51.985 17.6971 52.0132 17.7986 52.0176 17.9026L51.997 18.125L50.169 24.9472C50.1329 25.0864 50.0547 25.2109 49.9452 25.304C49.8357 25.3971 49.7001 25.4541 49.557 25.4672L49.3449 25.4493L42.0247 23.4879C41.8879 23.4477 41.7675 23.365 41.6809 23.2518C41.5942 23.1386 41.5459 23.0008 41.5428 22.8583L41.5673 22.6424L43.3953 15.8202L43.482 15.621C43.5381 15.5317 43.6141 15.4566 43.7041 15.4016C43.7941 15.3466 43.8956 15.3132 44.0006 15.304L44.2127 15.3219L51.533 17.2834ZM61.6651 19.9983C61.9453 20.0734 62.1325 20.3293 62.1498 20.6175L62.1291 20.8399L60.3011 27.6621C60.265 27.8013 60.1869 27.9259 60.0774 28.0189C59.9678 28.112 59.8323 28.169 59.6892 28.1821L59.4719 28.1628L52.1568 26.2028C52.0201 26.1626 51.8997 26.0799 51.813 25.9667C51.7264 25.8535 51.678 25.7157 51.6749 25.5732L51.6994 25.3573L53.5274 18.5351L53.6142 18.3359C53.6702 18.2466 53.7462 18.1715 53.8362 18.1165C53.9262 18.0615 54.0277 18.0281 54.1328 18.0189L54.3501 18.0382L61.6755 20.0011L61.6651 19.9983ZM64.2952 10.1826C64.5754 10.2577 64.7626 10.5136 64.7799 10.8018L64.7606 11.0191L62.9312 17.8465C62.8951 17.9856 62.817 18.1102 62.7075 18.2032C62.5979 18.2963 62.4624 18.3533 62.3193 18.3664L62.1034 18.3419L54.7883 16.3819C54.6523 16.3435 54.532 16.2628 54.4449 16.1514C54.3577 16.0401 54.3083 15.904 54.3037 15.7627L54.3281 15.5468L56.1589 8.71424L56.2457 8.51506C56.3017 8.42572 56.3777 8.3506 56.4677 8.2956C56.5577 8.2406 56.6592 8.20721 56.7643 8.19807L56.975 8.22116L64.3004 10.184L64.2952 10.1826Z" stroke="white" stroke-width="8" mask="url(#path-1-outside-1_417_792)"/>
</g>
<defs>
<filter id="filter0_d_417_792" x="0.547852" y="0.178955" width="103.663" height="77.7043" filterUnits="userSpaceOnUse" color-interpolation-filters="sRGB">
<feFlood flood-opacity="0" result="BackgroundImageFix"/>
<feColorMatrix in="SourceAlpha" type="matrix" values="0 0 0 0 0 0 0 0 0 0 0 0 0 0 0 0 0 0 127 0" result="hardAlpha"/>
<feOffset/>
<feGaussianBlur stdDeviation="2"/>
<feComposite in2="hardAlpha" operator="out"/>
<feColorMatrix type="matrix" values="0 0 0 0 0 0 0 0 0 0 0 0 0 0 0 0 0 0 0.25 0"/>
<feBlend mode="normal" in2="BackgroundImageFix" result="effect1_dropShadow_417_792"/>
<feBlend mode="normal" in="SourceGraphic" in2="effect1_dropShadow_417_792" result="shape"/>
</filter>
</defs>
</svg>
