<svg width="84" height="102" viewBox="0 0 84 102" fill="none" xmlns="http://www.w3.org/2000/svg">
<g filter="url(#filter0_d_437_857)">
<mask id="path-1-outside-1_437_857" maskUnits="userSpaceOnUse" x="1.39405" y="-0.191873" width="92.1333" height="106.275" fill="black">
<rect fill="white" x="1.39405" y="-0.191873" width="92.1333" height="106.275"/>
<path d="M11.2426 70.2707L11.9279 69.7094L47.426 31.4044L47.6024 30.9457L42.4421 8.6939C42.3476 8.28693 42.1273 7.9199 41.8125 7.64474C41.4978 7.36958 41.1044 7.20022 40.6881 7.16062C40.2718 7.12102 39.8537 7.21317 39.4929 7.42406C39.132 7.63494 38.8468 7.95388 38.6774 8.33574L11.2426 70.2707Z"/>
<path d="M11.6775 69.8217L12.2497 69.1893L47.38 31.2824L42.2666 8.96141C42.187 8.57573 41.9845 8.22613 41.6893 7.96499C41.3942 7.70385 41.0224 7.54522 40.6296 7.51288C40.2367 7.48054 39.8441 7.57623 39.5104 7.7856C39.1767 7.99498 38.92 8.30677 38.7787 8.67426L11.6775 69.8217Z"/>
<path d="M51.2216 47.6992L61.0698 41.8521L57.2853 25.0574C57.2001 24.6949 57.0181 24.3623 56.7587 24.0948C56.4993 23.8274 56.1722 23.6353 55.8122 23.5388C55.4523 23.4424 55.0729 23.4452 54.7146 23.5471C54.3562 23.649 54.0323 23.8461 53.7772 24.1174L47.5394 30.8753L47.3595 31.5468L51.2216 47.6992Z"/>
<path d="M51.1701 47.3399L60.7411 41.67L57.0632 25.3469C57.0232 25.0042 56.8849 24.6803 56.6648 24.4143C56.4448 24.1483 56.1525 23.9515 55.8232 23.8476C55.4938 23.7437 55.1414 23.7372 54.8086 23.8289C54.4757 23.9206 54.1766 24.1065 53.9472 24.3643L47.6519 31.2546L47.4194 31.6291L51.1701 47.3399Z"/>
<path d="M11.2475 70.2752L11.5349 70.107L12.4427 69.9951L50.5943 48.0907L51.2541 47.1549L47.5746 30.8377L11.2475 70.2752Z"/>
<path d="M39.8123 94.1311L71.148 86.2502L76.1886 36.2735C76.2232 35.921 76.1599 35.5657 76.0056 35.2466C75.8514 34.9275 75.6121 34.657 75.3141 34.4648C75.0161 34.2726 74.6709 34.1661 74.3165 34.157C73.962 34.148 73.6119 34.2366 73.3046 34.4133L11.2426 70.2707L34.297 92.6502C35.0138 93.3457 35.8967 93.8465 36.8616 94.1051C37.8266 94.3636 38.8416 94.3713 39.8101 94.1274"/>
<path d="M70.9323 86.057L75.9409 36.4583C76.0137 36.1317 75.988 35.7909 75.8669 35.4788C75.7458 35.1668 75.5348 34.8976 75.2605 34.7053C74.9863 34.5131 74.6612 34.4064 74.3263 34.3988C73.9915 34.3911 73.662 34.4829 73.3794 34.6625L11.5605 70.2584L34.3588 92.3961C35.0699 93.086 35.9457 93.5827 36.903 93.8392C37.8602 94.0957 38.8671 94.1034 39.8279 93.8616L70.9323 86.057Z"/>
<path d="M39.9349 93.6735C38.9664 93.9174 37.9514 93.9097 36.9864 93.6511C36.0214 93.3925 35.1386 92.8917 34.4218 92.1962L11.527 70.1017L11.2426 70.2707L34.297 92.6502C35.0138 93.3457 35.8967 93.8465 36.8616 94.1051C37.8266 94.3636 38.8416 94.3713 39.8101 94.1274L71.148 86.2502L71.1905 85.8214L39.9349 93.6735Z"/>
</mask>
<path d="M11.2426 70.2707L11.9279 69.7094L47.426 31.4044L47.6024 30.9457L42.4421 8.6939C42.3476 8.28693 42.1273 7.9199 41.8125 7.64474C41.4978 7.36958 41.1044 7.20022 40.6881 7.16062C40.2718 7.12102 39.8537 7.21317 39.4929 7.42406C39.132 7.63494 38.8468 7.95388 38.6774 8.33574L11.2426 70.2707Z" fill="#FFC24A"/>
<path d="M11.6775 69.8217L12.2497 69.1893L47.38 31.2824L42.2666 8.96141C42.187 8.57573 41.9845 8.22613 41.6893 7.96499C41.3942 7.70385 41.0224 7.54522 40.6296 7.51288C40.2367 7.48054 39.8441 7.57623 39.5104 7.7856C39.1767 7.99498 38.92 8.30677 38.7787 8.67426L11.6775 69.8217Z" fill="#FFA712"/>
<path d="M51.2216 47.6992L61.0698 41.8521L57.2853 25.0574C57.2001 24.6949 57.0181 24.3623 56.7587 24.0948C56.4993 23.8274 56.1722 23.6353 55.8122 23.5388C55.4523 23.4424 55.0729 23.4452 54.7146 23.5471C54.3562 23.649 54.0323 23.8461 53.7772 24.1174L47.5394 30.8753L47.3595 31.5468L51.2216 47.6992Z" fill="#F4BD62"/>
<path d="M51.1701 47.3399L60.7411 41.67L57.0632 25.3469C57.0232 25.0042 56.8849 24.6803 56.6648 24.4143C56.4448 24.1483 56.1525 23.9515 55.8232 23.8476C55.4938 23.7437 55.1414 23.7372 54.8086 23.8289C54.4757 23.9206 54.1766 24.1065 53.9472 24.3643L47.6519 31.2546L47.4194 31.6291L51.1701 47.3399Z" fill="#FFA50E"/>
<path d="M11.2475 70.2752L11.5349 70.107L12.4427 69.9951L50.5943 48.0907L51.2541 47.1549L47.5746 30.8377L11.2475 70.2752Z" fill="#F6820C"/>
<path d="M39.8123 94.1311L71.148 86.2502L76.1886 36.2735C76.2232 35.921 76.1599 35.5657 76.0056 35.2466C75.8514 34.9275 75.6121 34.657 75.3141 34.4648C75.0161 34.2726 74.6709 34.1661 74.3165 34.157C73.962 34.148 73.6119 34.2366 73.3046 34.4133L11.2426 70.2707L34.297 92.6502C35.0138 93.3457 35.8967 93.8465 36.8616 94.1051C37.8266 94.3636 38.8416 94.3713 39.8101 94.1274" fill="#FDE068"/>
<path d="M70.9323 86.057L75.9409 36.4583C76.0137 36.1317 75.988 35.7909 75.8669 35.4788C75.7458 35.1668 75.5348 34.8976 75.2605 34.7053C74.9863 34.5131 74.6612 34.4064 74.3263 34.3988C73.9915 34.3911 73.662 34.4829 73.3794 34.6625L11.5605 70.2584L34.3588 92.3961C35.0699 93.086 35.9457 93.5827 36.903 93.8392C37.8602 94.0957 38.8671 94.1034 39.8279 93.8616L70.9323 86.057Z" fill="#FCCA3F"/>
<path d="M39.9349 93.6735C38.9664 93.9174 37.9514 93.9097 36.9864 93.6511C36.0214 93.3925 35.1386 92.8917 34.4218 92.1962L11.527 70.1017L11.2426 70.2707L34.297 92.6502C35.0138 93.3457 35.8967 93.8465 36.8616 94.1051C37.8266 94.3636 38.8416 94.3713 39.8101 94.1274L71.148 86.2502L71.1905 85.8214L39.9349 93.6735Z" fill="#EEAB37"/>
<path d="M34.297 92.6502L33.2522 93.7265L33.2524 93.7267L34.297 92.6502ZM11.2426 70.2707L10.1978 71.347L33.2522 93.7265L34.297 92.6502L35.3418 91.5739L12.2874 69.1944L11.2426 70.2707ZM34.297 92.6502L33.2524 93.7267C34.1528 94.6003 35.2616 95.2292 36.4734 95.5539L36.8616 94.1051L37.2499 92.6562C36.5317 92.4637 35.8748 92.091 35.3415 91.5736L34.297 92.6502ZM36.8616 94.1051L36.4734 95.5539C37.6852 95.8787 38.96 95.8883 40.1765 95.582L39.8101 94.1274L39.4438 92.6728C38.7233 92.8543 37.968 92.8486 37.2499 92.6562L36.8616 94.1051ZM11.2426 70.2707L8.49965 69.0556L4.77023 77.4749L12.7434 72.8683L11.2426 70.2707ZM11.9279 69.7094L13.8287 72.0303L13.9882 71.8997L14.1283 71.7486L11.9279 69.7094ZM47.426 31.4044L49.6264 33.4436L50.0189 33.0201L50.2261 32.4812L47.426 31.4044ZM47.6024 30.9457L50.4025 32.0225L50.7326 31.164L50.5249 30.268L47.6024 30.9457ZM42.4421 8.6939L45.3646 8.01617L45.3643 8.01479L42.4421 8.6939ZM38.6774 8.33574L35.935 7.1196L35.9345 7.12072L38.6774 8.33574ZM11.6775 69.8217L8.93483 68.6061L13.9021 71.8345L11.6775 69.8217ZM12.2497 69.1893L10.0493 67.1501L10.0372 67.1632L10.0251 67.1765L12.2497 69.1893ZM47.38 31.2824L49.5804 33.3216L50.6584 32.1584L50.3043 30.6125L47.38 31.2824ZM42.2666 8.96141L39.3286 9.56787L39.3351 9.59967L39.3424 9.63132L42.2666 8.96141ZM38.7787 8.67426L41.5214 9.88985L41.5518 9.82116L41.5788 9.75104L38.7787 8.67426ZM51.2216 47.6992L48.3039 48.3969L49.251 52.3581L52.7532 50.2788L51.2216 47.6992ZM61.0698 41.8521L62.6013 44.4317L64.4755 43.3189L63.9964 41.1926L61.0698 41.8521ZM57.2853 25.0574L60.212 24.3979L60.2089 24.3843L60.2057 24.3707L57.2853 25.0574ZM53.7772 24.1174L51.5914 22.0625L51.5821 22.0725L51.5728 22.0826L53.7772 24.1174ZM47.5394 30.8753L45.335 28.8405L44.8331 29.3842L44.6416 30.0988L47.5394 30.8753ZM47.3595 31.5468L44.4617 30.7704L44.2649 31.5049L44.4417 32.2445L47.3595 31.5468ZM51.1701 47.3399L48.2521 48.0366L49.1973 51.9956L52.6992 49.921L51.1701 47.3399ZM60.7411 41.67L62.2702 44.251L64.1473 43.139L63.6677 41.0105L60.7411 41.67ZM57.0632 25.3469L54.0833 25.6944L54.1017 25.8518L54.1365 26.0064L57.0632 25.3469ZM53.9472 24.3643L56.162 26.3878L56.1752 26.3733L56.1883 26.3586L53.9472 24.3643ZM47.6519 31.2546L45.4371 29.231L45.2496 29.4362L45.1031 29.6723L47.6519 31.2546ZM47.4194 31.6291L44.8705 30.0469L44.211 31.1094L44.5014 32.3258L47.4194 31.6291ZM11.2475 70.2752L9.04097 68.2426L12.7628 72.8644L11.2475 70.2752ZM11.5349 70.107L11.1679 67.1295L10.5537 67.2053L10.0196 67.5178L11.5349 70.107ZM12.4427 69.9951L12.8097 72.9726L13.411 72.8985L13.9364 72.5968L12.4427 69.9951ZM50.5943 48.0907L52.088 50.6924L52.6637 50.3619L53.0462 49.8194L50.5943 48.0907ZM51.2541 47.1549L53.706 48.8836L54.4737 47.7947L54.1806 46.495L51.2541 47.1549ZM47.5746 30.8377L50.5011 30.1778L49.2429 24.5985L45.368 28.8052L47.5746 30.8377ZM71.148 86.2502L71.8797 89.1596L73.9216 88.6461L74.1329 86.5513L71.148 86.2502ZM76.1886 36.2735L79.1734 36.5746L79.1742 36.5666L76.1886 36.2735ZM73.3046 34.4133L71.8091 31.8127L71.8038 31.8157L73.3046 34.4133ZM70.9323 86.057L71.6624 88.9668L73.7055 88.4542L73.9171 86.3584L70.9323 86.057ZM75.9409 36.4583L73.0129 35.8049L72.974 35.9792L72.956 36.1569L75.9409 36.4583ZM73.3794 34.6625L74.8764 37.2623L74.9334 37.2295L74.9888 37.1943L73.3794 34.6625ZM11.5605 70.2584L10.0635 67.6586L6.61919 69.6418L9.47061 72.4106L11.5605 70.2584ZM34.3588 92.3961L32.2688 94.5484L32.2699 94.5495L34.3588 92.3961ZM39.8279 93.8616L39.0978 90.9518L39.0956 90.9523L39.8279 93.8616ZM39.9349 93.6735L39.204 90.7639L39.2023 90.7643L39.9349 93.6735ZM34.4218 92.1962L36.5108 90.0431L36.505 90.0375L34.4218 92.1962ZM11.527 70.1017L13.6102 67.943L11.963 66.3534L9.99488 67.5225L11.527 70.1017ZM71.1905 85.8214L74.1759 86.1174L74.5969 81.8724L70.4596 82.9118L71.1905 85.8214ZM11.2426 70.2707L13.1435 72.5916L13.8287 72.0303L11.9279 69.7094L10.027 67.3885L9.34171 67.9497L11.2426 70.2707ZM11.9279 69.7094L14.1283 71.7486L49.6264 33.4436L47.426 31.4044L45.2256 29.3653L9.72746 67.6702L11.9279 69.7094ZM47.426 31.4044L50.2261 32.4812L50.4025 32.0225L47.6024 30.9457L44.8023 29.8689L44.6259 30.3277L47.426 31.4044ZM47.6024 30.9457L50.5249 30.268L45.3646 8.01617L42.4421 8.6939L39.5197 9.37162L44.68 31.6234L47.6024 30.9457ZM42.4421 8.6939L45.3643 8.01479C45.1272 6.99452 44.5751 6.07505 43.787 5.38607L41.8125 7.64474L39.8381 9.90342C39.6795 9.76476 39.568 9.57934 39.52 9.373L42.4421 8.6939ZM41.8125 7.64474L43.787 5.38607C42.9988 4.69712 42.0142 4.27323 40.9723 4.1741L40.6881 7.16062L40.404 10.1471C40.1946 10.1272 39.9967 10.0421 39.8381 9.90342L41.8125 7.64474ZM40.6881 7.16062L40.9723 4.1741C39.9303 4.07498 38.8832 4.30559 37.9791 4.83397L39.4929 7.42406L41.0066 10.0142C40.8242 10.1208 40.6134 10.1671 40.404 10.1471L40.6881 7.16062ZM39.4929 7.42406L37.9791 4.83397C37.075 5.36237 36.3597 6.16184 35.935 7.1196L38.6774 8.33574L41.4199 9.55187C41.3338 9.74591 41.1891 9.90751 41.0066 10.0142L39.4929 7.42406ZM38.6774 8.33574L35.9345 7.12072L8.49965 69.0556L11.2426 70.2707L13.9855 71.4857L41.4204 9.55076L38.6774 8.33574ZM11.6775 69.8217L13.9021 71.8345L14.4743 71.2021L12.2497 69.1893L10.0251 67.1765L9.45294 67.8089L11.6775 69.8217ZM12.2497 69.1893L14.4501 71.2285L49.5804 33.3216L47.38 31.2824L45.1797 29.2432L10.0493 67.1501L12.2497 69.1893ZM47.38 31.2824L50.3043 30.6125L45.1909 8.29151L42.2666 8.96141L39.3424 9.63132L44.4558 31.9523L47.38 31.2824ZM42.2666 8.96141L45.2047 8.35495C44.9939 7.33374 44.4578 6.40878 43.6773 5.71824L41.6893 7.96499L39.7013 10.2117C39.5112 10.0435 39.3801 9.81772 39.3286 9.56787L42.2666 8.96141ZM41.6893 7.96499L43.6773 5.71824C42.897 5.02774 41.914 4.60848 40.8757 4.523L40.6296 7.51288L40.3834 10.5028C40.1307 10.482 39.8915 10.38 39.7013 10.2117L41.6893 7.96499ZM40.6296 7.51288L40.8757 4.523C39.8374 4.43752 38.7989 4.69038 37.9159 5.24443L39.5104 7.7856L41.1049 10.3268C40.8893 10.4621 40.6361 10.5236 40.3834 10.5028L40.6296 7.51288ZM39.5104 7.7856L37.9159 5.24443C37.0329 5.79851 36.3529 6.62398 35.9786 7.59748L38.7787 8.67426L41.5788 9.75104C41.487 9.98955 41.3206 10.1914 41.1049 10.3268L39.5104 7.7856ZM38.7787 8.67426L36.036 7.45867L8.93483 68.6061L11.6775 69.8217L14.4202 71.0373L41.5214 9.88985L38.7787 8.67426ZM51.2216 47.6992L52.7532 50.2788L62.6013 44.4317L61.0698 41.8521L59.5382 39.2725L49.69 45.1196L51.2216 47.6992ZM61.0698 41.8521L63.9964 41.1926L60.212 24.3979L57.2853 25.0574L54.3587 25.7168L58.1431 42.5115L61.0698 41.8521ZM57.2853 25.0574L60.2057 24.3707C59.9962 23.4798 59.549 22.6626 58.912 22.006L56.7587 24.0948L54.6054 26.1837C54.4873 26.0619 54.404 25.91 54.365 25.744L57.2853 25.0574ZM56.7587 24.0948L58.912 22.006C58.275 21.3494 57.4721 20.8778 56.5887 20.6411L55.8122 23.5388L55.0358 26.4366C54.8723 26.3928 54.7236 26.3055 54.6054 26.1837L56.7587 24.0948ZM55.8122 23.5388L56.5887 20.6411C55.7053 20.4043 54.7741 20.4113 53.8942 20.6615L54.7146 23.5471L55.5349 26.4328C55.3717 26.4792 55.1992 26.4804 55.0358 26.4366L55.8122 23.5388ZM54.7146 23.5471L53.8942 20.6615C53.0143 20.9116 52.2183 21.3957 51.5914 22.0625L53.7772 24.1174L55.963 26.1722C55.8462 26.2965 55.6982 26.3864 55.5349 26.4328L54.7146 23.5471ZM53.7772 24.1174L51.5728 22.0826L45.335 28.8405L47.5394 30.8753L49.7439 32.9101L55.9817 26.1521L53.7772 24.1174ZM47.5394 30.8753L44.6416 30.0988L44.4617 30.7704L47.3595 31.5468L50.2573 32.3233L50.4372 31.6518L47.5394 30.8753ZM47.3595 31.5468L44.4417 32.2445L48.3039 48.3969L51.2216 47.6992L54.1394 47.0016L50.2772 30.8492L47.3595 31.5468ZM51.1701 47.3399L52.6992 49.921L62.2702 44.251L60.7411 41.67L59.212 39.0889L49.6411 44.7589L51.1701 47.3399ZM60.7411 41.67L63.6677 41.0105L59.9898 24.6875L57.0632 25.3469L54.1365 26.0064L57.8145 42.3294L60.7411 41.67ZM57.0632 25.3469L60.043 24.9995C59.9359 24.0814 59.5654 23.2142 58.9767 22.5024L56.6648 24.4143L54.353 26.3262C54.2043 26.1464 54.1105 25.9271 54.0833 25.6944L57.0632 25.3469ZM56.6648 24.4143L58.9767 22.5024C58.388 21.7905 57.6061 21.2642 56.7254 20.9865L55.8232 23.8476L54.9209 26.7087C54.699 26.6387 54.5017 26.506 54.353 26.3262L56.6648 24.4143ZM55.8232 23.8476L56.7254 20.9865C55.8448 20.7088 54.9025 20.6914 54.012 20.9366L54.8086 23.8289L55.6052 26.7212C55.3804 26.7831 55.1428 26.7787 54.9209 26.7087L55.8232 23.8476ZM54.8086 23.8289L54.012 20.9366C53.1214 21.1819 52.3205 21.6795 51.7061 22.3699L53.9472 24.3643L56.1883 26.3586C56.0326 26.5336 55.83 26.6593 55.6052 26.7212L54.8086 23.8289ZM53.9472 24.3643L51.7324 22.3408L45.4371 29.231L47.6519 31.2546L49.8667 33.2781L56.162 26.3878L53.9472 24.3643ZM47.6519 31.2546L45.1031 29.6723L44.8705 30.0469L47.4194 31.6291L49.9682 33.2113L50.2007 32.8368L47.6519 31.2546ZM47.4194 31.6291L44.5014 32.3258L48.2521 48.0366L51.1701 47.3399L54.0881 46.6433L50.3374 30.9325L47.4194 31.6291ZM11.2475 70.2752L12.7628 72.8644L13.0501 72.6962L11.5349 70.107L10.0196 67.5178L9.73225 67.686L11.2475 70.2752ZM11.5349 70.107L11.9019 73.0845L12.8097 72.9726L12.4427 69.9951L12.0757 67.0177L11.1679 67.1295L11.5349 70.107ZM12.4427 69.9951L13.9364 72.5968L52.088 50.6924L50.5943 48.0907L49.1006 45.489L10.949 67.3934L12.4427 69.9951ZM50.5943 48.0907L53.0462 49.8194L53.706 48.8836L51.2541 47.1549L48.8022 45.4262L48.1424 46.362L50.5943 48.0907ZM51.2541 47.1549L54.1806 46.495L50.5011 30.1778L47.5746 30.8377L44.648 31.4976L48.3276 47.8148L51.2541 47.1549ZM47.5746 30.8377L45.368 28.8052L9.04097 68.2426L11.2475 70.2752L13.4541 72.3077L49.7811 32.8702L47.5746 30.8377ZM39.8123 94.1311L40.544 97.0405L71.8797 89.1596L71.148 86.2502L70.4163 83.3408L39.0806 91.2217L39.8123 94.1311ZM71.148 86.2502L74.1329 86.5513L79.1734 36.5746L76.1886 36.2735L73.2037 35.9725L68.1631 85.9492L71.148 86.2502ZM76.1886 36.2735L79.1742 36.5666C79.2628 35.6648 79.1008 34.7563 78.7065 33.9408L76.0056 35.2466L73.3047 36.5524C73.219 36.375 73.1836 36.1771 73.2029 35.9804L76.1886 36.2735ZM76.0056 35.2466L78.7065 33.9408C78.3123 33.1253 77.701 32.4345 76.9402 31.9438L75.3141 34.4648L73.688 36.9859C73.5232 36.8796 73.3905 36.7297 73.3047 36.5524L76.0056 35.2466ZM75.3141 34.4648L76.9402 31.9438C76.1795 31.453 75.2983 31.1812 74.3933 31.158L74.3165 34.157L74.2396 37.1561C74.0436 37.151 73.8528 37.0922 73.688 36.9859L75.3141 34.4648ZM74.3165 34.157L74.3933 31.158C73.4883 31.1348 72.5941 31.3612 71.8091 31.8127L73.3046 34.4133L74.8002 37.014C74.6296 37.112 74.4356 37.1611 74.2396 37.1561L74.3165 34.157ZM73.3046 34.4133L71.8038 31.8157L9.74178 67.673L11.2426 70.2707L12.7434 72.8683L74.8054 37.0109L73.3046 34.4133ZM70.9323 86.057L73.9171 86.3584L78.9257 36.7597L75.9409 36.4583L72.956 36.1569L67.9475 85.7556L70.9323 86.057ZM75.9409 36.4583L78.8688 37.1117C79.0711 36.2051 78.9996 35.2591 78.6636 34.3934L75.8669 35.4788L73.0701 36.5643C72.9764 36.3227 72.9563 36.0583 73.0129 35.8049L75.9409 36.4583ZM75.8669 35.4788L78.6636 34.3934C78.3277 33.5278 77.7425 32.7816 76.9827 32.2489L75.2605 34.7053L73.5383 37.1618C73.327 37.0136 73.1639 36.8058 73.0701 36.5643L75.8669 35.4788ZM75.2605 34.7053L76.9827 32.2489C76.2229 31.7162 75.3223 31.4207 74.3946 31.3995L74.3263 34.3988L74.258 37.398C74.0001 37.3921 73.7497 37.31 73.5383 37.1618L75.2605 34.7053ZM74.3263 34.3988L74.3946 31.3995C73.467 31.3784 72.5536 31.6327 71.7701 32.1307L73.3794 34.6625L74.9888 37.1943C74.7704 37.3332 74.516 37.4039 74.258 37.398L74.3263 34.3988ZM73.3794 34.6625L71.8824 32.0627L10.0635 67.6586L11.5605 70.2584L13.0575 72.8582L74.8764 37.2623L73.3794 34.6625ZM11.5605 70.2584L9.47061 72.4106L32.2688 94.5484L34.3588 92.3961L36.4487 90.2439L13.6504 68.1061L11.5605 70.2584ZM34.3588 92.3961L32.2699 94.5495C33.3481 95.5953 34.6757 96.3483 36.1265 96.737L36.903 93.8392L37.6794 90.9415C37.2158 90.8172 36.7917 90.5766 36.4476 90.2428L34.3588 92.3961ZM36.903 93.8392L36.1265 96.737C37.5774 97.1258 39.1036 97.1375 40.5602 96.7708L39.8279 93.8616L39.0956 90.9523C38.6306 91.0694 38.1431 91.0657 37.6794 90.9415L36.903 93.8392ZM39.8279 93.8616L40.558 96.7714L71.6624 88.9668L70.9323 86.057L70.2022 83.1472L39.0978 90.9518L39.8279 93.8616ZM39.9349 93.6735L39.2023 90.7643C38.7297 90.8833 38.2342 90.8796 37.7629 90.7533L36.9864 93.6511L36.21 96.5489C37.6686 96.9397 39.2031 96.9514 40.6676 96.5826L39.9349 93.6735ZM36.9864 93.6511L37.7629 90.7533C37.2916 90.627 36.8606 90.3825 36.5108 90.0431L34.4218 92.1962L32.3327 94.3493C33.4165 95.4009 34.7513 96.158 36.21 96.5489L36.9864 93.6511ZM34.4218 92.1962L36.505 90.0375L13.6102 67.943L11.527 70.1017L9.44372 72.2604L32.3385 94.3549L34.4218 92.1962ZM11.527 70.1017L9.99488 67.5225L9.71049 67.6914L11.2426 70.2707L12.7747 72.8499L13.0591 72.681L11.527 70.1017ZM39.8101 94.1274L40.5415 97.0369L71.8793 89.1597L71.148 86.2502L70.4167 83.3407L39.0788 91.2179L39.8101 94.1274ZM71.148 86.2502L74.1334 86.5463L74.1759 86.1174L71.1905 85.8214L68.2052 85.5253L68.1626 85.9542L71.148 86.2502ZM71.1905 85.8214L70.4596 82.9118L39.204 90.7639L39.9349 93.6735L40.6659 96.583L71.9215 88.731L71.1905 85.8214Z" fill="white" mask="url(#path-1-outside-1_437_857)"/>
</g>
<defs>
<filter id="filter0_d_437_857" x="0.770264" y="0.151611" width="82.4275" height="100.889" filterUnits="userSpaceOnUse" color-interpolation-filters="sRGB">
<feFlood flood-opacity="0" result="BackgroundImageFix"/>
<feColorMatrix in="SourceAlpha" type="matrix" values="0 0 0 0 0 0 0 0 0 0 0 0 0 0 0 0 0 0 127 0" result="hardAlpha"/>
<feOffset/>
<feGaussianBlur stdDeviation="2"/>
<feComposite in2="hardAlpha" operator="out"/>
<feColorMatrix type="matrix" values="0 0 0 0 0 0 0 0 0 0 0 0 0 0 0 0 0 0 0.25 0"/>
<feBlend mode="normal" in2="BackgroundImageFix" result="effect1_dropShadow_437_857"/>
<feBlend mode="normal" in="SourceGraphic" in2="effect1_dropShadow_437_857" result="shape"/>
</filter>
</defs>
</svg>
