<svg width="90" height="99" viewBox="0 0 90 99" fill="none" xmlns="http://www.w3.org/2000/svg">
<g filter="url(#filter0_d_417_785)">
<path d="M81.6409 14.9817L18.2543 51.5779L8.70978 35.0462L55.0264 8.30529L55.5637 7.9943L81.6409 14.9817Z" fill="#47C5FB" stroke="white" stroke-width="3"/>
<path d="M47.6338 64.5863L61.6936 89.0601L63.4915 92.1907L37.5492 85.2395L37.2385 84.7013L31.1261 74.113L30.3762 72.8141L45.5826 64.0346L46.8842 63.2824L47.6338 64.5863Z" fill="#00569E" stroke="white" stroke-width="3"/>
<path d="M71.9967 46.2144L30.5623 70.1366L29.2536 70.893L28.508 69.578L20.4768 55.4274L19.742 54.1326L45.6734 39.1611L71.9967 46.2144Z" fill="#47C5FB" stroke="white" stroke-width="3"/>
<path d="M21.6245 54.7773L35.5585 46.7325L43.7198 60.808L29.812 68.8379L21.6245 54.7773Z" fill="#00B5F8"/>
</g>
<defs>
<filter id="filter0_d_417_785" x="2.66064" y="2.38477" width="86.8665" height="96.189" filterUnits="userSpaceOnUse" color-interpolation-filters="sRGB">
<feFlood flood-opacity="0" result="BackgroundImageFix"/>
<feColorMatrix in="SourceAlpha" type="matrix" values="0 0 0 0 0 0 0 0 0 0 0 0 0 0 0 0 0 0 127 0" result="hardAlpha"/>
<feOffset/>
<feGaussianBlur stdDeviation="2"/>
<feComposite in2="hardAlpha" operator="out"/>
<feColorMatrix type="matrix" values="0 0 0 0 0 0 0 0 0 0 0 0 0 0 0 0 0 0 0.25 0"/>
<feBlend mode="normal" in2="BackgroundImageFix" result="effect1_dropShadow_417_785"/>
<feBlend mode="normal" in="SourceGraphic" in2="effect1_dropShadow_417_785" result="shape"/>
</filter>
</defs>
</svg>
