<svg width="82" height="84" viewBox="0 0 82 84" fill="none" xmlns="http://www.w3.org/2000/svg">
<g filter="url(#filter0_d_432_823)">
<path d="M18.6002 26.2094L14.6414 42.6104H12.3791V51.0937L14.6414 59.577L18.9628 68.4755C26.5179 75.4126 36.1323 77.1092 44.05 76.3054L51.9678 72.5847L66.1067 57.8803L68.9344 28.4716L57.6234 19.9883L44.0501 13.7672L28.7802 12.6361L18.6002 26.2094Z" fill="white"/>
<path fill-rule="evenodd" clip-rule="evenodd" d="M50.005 8.13699C68.1077 12.9876 78.7507 31.9639 73.7772 50.5255C69.7996 65.3702 57.0445 75.4496 42.837 76.4099C41.0865 76.2956 40.7778 75.0881 41.0175 74.1933C41.3144 73.0854 42.3233 69.4775 43.5282 64.9805C44.3678 61.847 43.867 59.5209 42.9696 58.1633C50.4921 59.2866 58.9234 58.4997 62.3819 45.5921C63.3656 41.9211 62.8965 38.5847 61.4228 35.6675C61.9912 34.9099 64.0313 31.7929 63.4851 26.6862C63.4851 26.6862 60.9797 25.0497 53.558 27.7193C51.1385 26.2736 48.4331 25.1474 45.6506 24.3878C42.861 23.6544 39.9583 23.2779 37.1433 23.321C32.0442 17.2965 29.0497 17.4592 29.0497 17.4592C26.0298 21.6104 26.2381 25.3299 26.3483 26.2693C23.6232 28.0614 21.539 30.7137 20.5553 34.3847C17.1055 47.2595 23.9858 52.1958 31.038 54.9954C29.8758 55.5833 28.6302 56.836 27.753 58.9301C25.6546 59.2882 20.5102 59.5028 18.9628 53.5832C18.9628 53.5832 18.0941 49.8897 14.8665 48.7719C14.8665 48.7719 11.6821 47.8731 14.0964 50.7543C14.0964 50.7543 15.9667 52.3621 16.4173 56.6457C16.4173 56.6457 16.7341 63.1593 26.3972 63.5705C25.6609 66.3838 24.981 69.0391 24.7667 69.8389C24.5287 70.7271 23.6471 71.6051 22.0949 70.8554C10.2594 62.924 4.24486 47.8083 8.22335 32.9604C13.1969 14.3988 31.9055 3.28726 50.005 8.13699Z" fill="black"/>
<path d="M6.77466 32.5723C11.9534 13.2448 31.4595 1.61545 50.3928 6.68848C69.3296 11.7626 80.4046 31.5866 75.2258 50.9141C71.2247 65.8457 58.6895 76.1717 44.4631 77.7676L44.4563 77.7715L44.2014 77.7979C44.1433 77.8038 44.0849 77.8078 44.0266 77.8135C43.6647 77.8494 43.3016 77.8817 42.9377 77.9062L42.8391 77.9131L42.8088 77.9102C34.8698 78.4166 25.4755 76.4774 17.9719 69.6016C7.81641 60.8818 3.01562 46.6013 6.77466 32.5723Z" stroke="white" stroke-width="3"/>
</g>
<defs>
<filter id="filter0_d_432_823" x="0" y="-0.00244141" width="81.9993" height="83.491" filterUnits="userSpaceOnUse" color-interpolation-filters="sRGB">
<feFlood flood-opacity="0" result="BackgroundImageFix"/>
<feColorMatrix in="SourceAlpha" type="matrix" values="0 0 0 0 0 0 0 0 0 0 0 0 0 0 0 0 0 0 127 0" result="hardAlpha"/>
<feOffset/>
<feGaussianBlur stdDeviation="2"/>
<feComposite in2="hardAlpha" operator="out"/>
<feColorMatrix type="matrix" values="0 0 0 0 0 0 0 0 0 0 0 0 0 0 0 0 0 0 0.25 0"/>
<feBlend mode="normal" in2="BackgroundImageFix" result="effect1_dropShadow_432_823"/>
<feBlend mode="normal" in="SourceGraphic" in2="effect1_dropShadow_432_823" result="shape"/>
</filter>
</defs>
</svg>
