<svg width="27" height="25" viewBox="0 0 27 25" fill="none" xmlns="http://www.w3.org/2000/svg">
<path d="M13.5 0C6.04186 0 0 5.73588 0 12.8163C0 18.4869 3.86468 23.2779 9.23032 24.9755C9.90532 25.0873 10.1581 24.704 10.1581 24.3673C10.1581 24.062 10.1422 23.053 10.1422 21.98C6.75 22.573 5.8725 21.1947 5.6025 20.4746C5.45032 20.1053 4.7925 18.9681 4.21936 18.664C3.74686 18.4228 3.07064 17.831 4.20218 17.8147C5.265 17.7983 6.02468 18.7433 6.2775 19.1289C7.4925 21.0665 9.43282 20.5224 10.2097 20.1857C10.3275 19.3526 10.6822 18.7922 11.07 18.4718C8.06564 18.1514 4.9275 17.0457 4.9275 12.1429C4.9275 10.7494 5.45032 9.59591 6.31186 8.69877C6.17564 8.37837 5.70314 7.06528 6.44686 5.30245C6.44686 5.30245 7.57718 4.9669 10.1581 6.61671C11.2571 6.32724 12.3926 6.1818 13.5331 6.18445C14.6819 6.18445 15.8294 6.32776 16.9081 6.61671C19.4903 4.95059 20.6206 5.30245 20.6206 5.30245C21.3631 7.06528 20.8919 8.37837 20.7569 8.69877C21.6172 9.59591 22.14 10.7342 22.14 12.1429C22.14 17.062 18.9847 18.1514 15.9803 18.4718C16.47 18.8726 16.8922 19.6416 16.8922 20.8428C16.8922 22.5567 16.875 23.935 16.875 24.3673C16.875 24.704 17.1278 25.1036 17.8028 24.9755C23.1353 23.2779 27 18.4718 27 12.8163C27 5.73588 20.9594 0 13.5 0Z" fill="#212121"/>
</svg>
