<svg width="92" height="92" viewBox="0 0 92 92" fill="none" xmlns="http://www.w3.org/2000/svg">
<g filter="url(#filter0_d_417_807)">
<path d="M21.2706 11.7707C22.1282 8.56986 25.4182 6.67036 28.619 7.52801L79.8131 21.2454C83.0139 22.1031 84.9134 25.3931 84.0557 28.5939L70.3383 79.788C69.4807 82.9888 66.1907 84.8883 62.9899 84.0306L11.7958 70.3132C8.59501 69.4555 6.69551 66.1655 7.55316 62.9647L21.2706 11.7707Z" fill="#F7DF1E"/>
<path d="M80.2013 19.7965C84.2023 20.8686 86.5767 24.9811 85.5046 28.9821L71.7872 80.1762C70.7152 84.1772 66.6026 86.5516 62.6016 85.4795L11.4076 71.7621C7.40658 70.69 5.03221 66.5775 6.10427 62.5765L19.8217 11.3824C20.8937 7.38143 25.0063 5.00706 29.0073 6.07912L80.2013 19.7965Z" stroke="white" stroke-width="3"/>
</g>
<path d="M25.2733 62.8663L30.8572 61.246C31.3437 63.1379 31.8143 64.7543 33.8369 65.2963C35.7757 65.8158 37.2012 65.3849 37.9916 62.435L43.3671 42.3736L49.2673 43.9546L43.8695 64.0993C42.232 70.2104 37.9046 72.0322 32.6784 70.6318C27.9584 69.3671 25.8736 66.1885 25.2733 62.8658" fill="black"/>
<path d="M46.3063 67.8246L51.8558 66.3303C52.567 68.7345 53.8042 70.692 56.7121 71.4712C59.1568 72.1262 61.0433 71.3216 61.495 69.6358C62.037 67.6128 60.6276 66.4672 58.2463 64.5648L56.9412 63.537C53.1698 60.5844 50.9557 57.552 52.2431 52.7473C53.4289 48.3221 57.7039 45.8537 62.9723 47.2654C66.7232 48.2704 69.0704 50.2998 70.0941 54.233L64.7098 55.9521C64.1838 53.869 63.2803 52.8591 61.5946 52.4074C59.8666 51.9444 58.4771 52.7465 58.0933 54.1792C57.6189 55.9493 58.5228 56.9596 60.7576 58.733L62.0632 59.7603C66.5025 63.2537 68.7392 66.2017 67.418 71.1325C65.995 76.4431 61.0436 78.2329 55.4383 76.731C49.9595 75.2629 47.1192 71.7014 46.3063 67.8246Z" fill="black"/>
<defs>
<filter id="filter0_d_417_807" x="0.346436" y="0.321289" width="90.916" height="90.916" filterUnits="userSpaceOnUse" color-interpolation-filters="sRGB">
<feFlood flood-opacity="0" result="BackgroundImageFix"/>
<feColorMatrix in="SourceAlpha" type="matrix" values="0 0 0 0 0 0 0 0 0 0 0 0 0 0 0 0 0 0 127 0" result="hardAlpha"/>
<feOffset/>
<feGaussianBlur stdDeviation="2"/>
<feComposite in2="hardAlpha" operator="out"/>
<feColorMatrix type="matrix" values="0 0 0 0 0 0 0 0 0 0 0 0 0 0 0 0 0 0 0.25 0"/>
<feBlend mode="normal" in2="BackgroundImageFix" result="effect1_dropShadow_417_807"/>
<feBlend mode="normal" in="SourceGraphic" in2="effect1_dropShadow_417_807" result="shape"/>
</filter>
</defs>
</svg>
