<svg width="54" height="54" viewBox="0 0 54 54" fill="none" xmlns="http://www.w3.org/2000/svg">
<path d="M53.2289 26.9326C53.2289 12.4351 41.4764 0.682617 26.9789 0.682617C12.4814 0.682617 0.728882 12.4351 0.728882 26.9326C0.728882 41.4301 12.4814 53.1826 26.9789 53.1826C41.4764 53.1826 53.2289 41.4301 53.2289 26.9326Z" fill="#1275B1"/>
<path d="M20.6388 15.1054C20.6388 16.8577 19.1198 18.2782 17.2463 18.2782C15.3727 18.2782 13.8539 16.8577 13.8539 15.1054C13.8539 13.3531 15.3727 11.9326 17.2463 11.9326C19.1198 11.9326 20.6388 13.3531 20.6388 15.1054Z" fill="white"/>
<path d="M14.3178 20.6104H20.1168V38.1827H14.3178V20.6104Z" fill="white"/>
<path d="M29.4531 20.6103H23.6541V38.1826H29.4531C29.4531 38.1826 29.4531 32.6506 29.4531 29.1918C29.4531 27.1156 30.1621 25.0304 32.9905 25.0304C36.187 25.0304 36.1679 27.7473 36.1529 29.8522C36.1334 32.6034 36.1799 35.4112 36.1799 38.1826H41.9789V28.9083C41.9297 22.9865 40.3866 20.2578 35.3101 20.2578C32.2952 20.2578 30.4264 21.6266 29.4531 22.8648V20.6103Z" fill="white"/>
</svg>
