<svg width="90" height="90" viewBox="0 0 90 90" fill="none" xmlns="http://www.w3.org/2000/svg">
<g filter="url(#filter0_d_445_869)">
<path d="M35.028 81.2955C55.0815 86.6688 75.6939 74.7682 81.0672 54.7147C86.4405 34.6613 74.5399 14.0488 54.4865 8.67552C34.433 3.30221 13.8206 15.2028 8.44729 35.2563C3.07398 55.3097 14.9746 75.9222 35.028 81.2955Z" fill="#13AA52"/>
<path d="M55.6518 43.1495C56.0706 32.4129 51.5421 27.6323 51.2991 26.2044C50.9013 25.1363 50.682 23.3673 50.682 23.3673C50.6786 23.3375 50.6743 23.2854 50.6668 23.234C50.3605 24.1135 50.2337 24.4504 49.1431 25.1281C47.5545 25.803 39.3008 29.6517 35.6712 41.0049C32.286 51.5935 38.8326 60.1976 39.7312 61.3118L39.834 61.4358L39.8361 61.428C39.8288 61.4838 39.5066 64.0761 39.041 66.7895L39.9161 67.024C40.623 65.2072 41.429 63.4305 42.3303 61.7019L42.4136 61.6748C43.0092 61.4504 43.59 61.1884 44.1523 60.8903L44.2158 60.8579C47.1778 59.3006 52.8058 55.3709 54.9314 47.2708C55.2841 45.9191 55.5251 44.5407 55.6518 43.1495ZM41.9864 55.4256C41.9864 55.4256 46.0172 40.3825 46.5129 40.5183C46.9001 40.6221 42.2022 60.1603 42.2022 60.1603C41.5351 59.8926 41.6729 56.5957 41.9864 55.4256Z" fill="white"/>
<path d="M54.8747 7.22662C75.7283 12.8143 88.1038 34.2493 82.5161 55.1029C76.9284 75.9565 55.4934 88.332 34.6398 82.7443C13.7862 77.1566 1.41069 55.7216 6.9984 34.868C12.5861 14.0144 34.0211 1.63893 54.8747 7.22662Z" stroke="white" stroke-width="3"/>
</g>
<defs>
<filter id="filter0_d_445_869" x="0.15625" y="0.384521" width="89.2019" height="89.2019" filterUnits="userSpaceOnUse" color-interpolation-filters="sRGB">
<feFlood flood-opacity="0" result="BackgroundImageFix"/>
<feColorMatrix in="SourceAlpha" type="matrix" values="0 0 0 0 0 0 0 0 0 0 0 0 0 0 0 0 0 0 127 0" result="hardAlpha"/>
<feOffset/>
<feGaussianBlur stdDeviation="2"/>
<feComposite in2="hardAlpha" operator="out"/>
<feColorMatrix type="matrix" values="0 0 0 0 0 0 0 0 0 0 0 0 0 0 0 0 0 0 0.25 0"/>
<feBlend mode="normal" in2="BackgroundImageFix" result="effect1_dropShadow_445_869"/>
<feBlend mode="normal" in="SourceGraphic" in2="effect1_dropShadow_445_869" result="shape"/>
</filter>
</defs>
</svg>
