<svg width="93" height="89" viewBox="0 0 93 89" fill="none" xmlns="http://www.w3.org/2000/svg">
<g filter="url(#filter0_d_445_863)">
<path d="M60.9751 18.7681L47.9931 14.5049L39.0358 33.2914L23.9869 42.5987L15.972 49.0827L17.762 62.902L34.6534 64.2893L50.4203 66.9447L62.3164 81.1179L78.5949 64.2931L65.2731 58.3695L59.7174 49.8186L63.2485 36.6404L60.9751 18.7681Z" fill="white"/>
<path d="M57.0237 8.66173C65.1598 10.8418 70.8176 18.2153 70.8176 26.6383C70.8174 35.0612 65.1601 42.4344 57.0241 44.6144L55.5754 45.0027L55.1874 43.5531L52.52 33.6008L52.1317 32.1521L53.5814 31.764C55.9013 31.1422 57.5148 29.0395 57.5148 26.6377C57.5147 24.2358 55.9005 22.1338 53.5804 21.5121C51.2605 20.8907 48.8122 21.9042 47.6113 23.984C46.4103 26.0641 46.7563 28.6919 48.4546 30.3903L49.5151 31.4509L48.4545 32.5114L41.1692 39.7969L40.1084 40.8583L39.0479 39.7977C33.092 33.8418 31.8791 24.6278 36.0905 17.3332C40.3019 10.0388 48.8877 6.48191 57.0237 8.66173Z" fill="#FF0101" stroke="white" stroke-width="3"/>
<path d="M57.5132 82.2958C49.3771 80.1157 43.7193 72.7423 43.7193 64.3192C43.7195 55.8963 49.3768 48.5231 57.5128 46.3431L58.9614 45.9548L59.3495 47.4044L62.0168 57.3568L62.4051 58.8054L60.9555 59.1935C58.6356 59.8153 57.022 61.918 57.022 64.3198C57.0221 66.7217 58.6364 68.8237 60.9564 69.4454C63.2763 70.0668 65.7246 69.0534 66.9256 66.9735C68.1265 64.8934 67.7805 62.2656 66.0823 60.5672L65.0218 59.5066L66.0824 58.4461L73.3677 51.1606L74.4285 50.0992L75.489 51.1598C81.4449 57.1157 82.6577 66.3297 78.4464 73.6243C74.2349 80.9188 65.6491 84.4756 57.5132 82.2958Z" fill="#0101FF" stroke="white" stroke-width="3"/>
<path d="M15.6516 38.1888C22.9462 33.9772 32.1603 35.1908 38.1163 41.1468L39.1767 42.2074L38.1161 43.2679L30.8309 50.5534L29.7703 51.6139L28.7089 50.553C27.0104 48.8548 24.3835 48.5093 22.3035 49.7102C20.2234 50.9112 19.2092 53.3589 19.8307 55.6789C20.4523 57.999 22.5551 59.6124 24.957 59.6124C27.3588 59.6122 29.4616 57.9991 30.0833 55.6791L30.4715 54.2302L43.321 57.6732L42.9327 59.1221C40.7527 67.2581 33.38 72.9161 24.9571 72.9163C16.5342 72.9163 9.16118 67.2586 6.98096 59.1228C4.80091 50.9868 8.35696 42.4003 15.6516 38.1888Z" fill="#01FF01" stroke="white" stroke-width="3"/>
</g>
<defs>
<filter id="filter0_d_445_863" x="0.844727" y="2.52588" width="85.5955" height="85.9058" filterUnits="userSpaceOnUse" color-interpolation-filters="sRGB">
<feFlood flood-opacity="0" result="BackgroundImageFix"/>
<feColorMatrix in="SourceAlpha" type="matrix" values="0 0 0 0 0 0 0 0 0 0 0 0 0 0 0 0 0 0 127 0" result="hardAlpha"/>
<feOffset/>
<feGaussianBlur stdDeviation="2"/>
<feComposite in2="hardAlpha" operator="out"/>
<feColorMatrix type="matrix" values="0 0 0 0 0 0 0 0 0 0 0 0 0 0 0 0 0 0 0.25 0"/>
<feBlend mode="normal" in2="BackgroundImageFix" result="effect1_dropShadow_445_863"/>
<feBlend mode="normal" in="SourceGraphic" in2="effect1_dropShadow_445_863" result="shape"/>
</filter>
</defs>
</svg>
