<svg width="122" height="118" viewBox="0 0 122 118" fill="none" xmlns="http://www.w3.org/2000/svg">
<g filter="url(#filter0_d_419_816)">
<path d="M78.7913 23.0477C85.2632 24.782 89.2253 31.3009 87.5165 37.6795L82.972 54.6398C81.491 60.1669 75.6979 63.3324 70.1052 61.834L50.9961 56.7137C46.0354 55.3847 41.0539 58.2111 39.797 62.902L37.1368 72.8301L29.7169 70.842C23.2447 69.1077 19.2816 62.5887 20.9908 56.2099L25.0189 41.1767C26.7282 34.7981 33.4198 31.1338 39.8919 32.868L46.4044 34.6131L48.3918 27.196C50.1011 20.8175 56.7927 17.1533 63.2648 18.8873L78.7913 23.0477ZM58.654 26.5417C57.4308 26.2141 56.2661 26.9185 55.9788 27.9905C55.6919 29.0623 56.3485 30.254 57.5714 30.5818C58.7941 30.9094 59.9588 30.2057 60.2463 29.1339C60.5335 28.0618 59.8768 26.8693 58.654 26.5417Z" fill="url(#paint0_linear_419_816)" stroke="white" stroke-width="3"/>
<path d="M92.0425 46.8423C98.5145 48.5767 102.477 55.0956 100.768 61.4742L96.7396 76.5073C95.0304 82.886 88.3395 86.5512 81.8672 84.8172L75.3539 83.0719L73.3667 90.4881C71.6575 96.8669 64.966 100.531 58.4937 98.7967L42.9681 94.6366C36.4961 92.9024 32.5328 86.3834 34.242 80.0046L38.7865 63.0442C40.2676 57.5171 46.0614 54.3517 51.6543 55.8503L70.7624 60.9703C75.7228 62.2995 80.7041 59.4741 81.9612 54.783L84.6217 44.8539L92.0425 46.8423ZM64.1871 87.1023C62.9639 86.7747 61.7992 87.4792 61.512 88.5511C61.2248 89.6229 61.8813 90.8154 63.1043 91.1433C64.3272 91.471 65.493 90.7668 65.7803 89.6948C66.0676 88.6227 65.41 87.43 64.1871 87.1023Z" fill="url(#paint1_linear_419_816)" stroke="white" stroke-width="3"/>
</g>
<defs>
<filter id="filter0_d_419_816" x="15.0916" y="12.9585" width="91.5757" height="91.7676" filterUnits="userSpaceOnUse" color-interpolation-filters="sRGB">
<feFlood flood-opacity="0" result="BackgroundImageFix"/>
<feColorMatrix in="SourceAlpha" type="matrix" values="0 0 0 0 0 0 0 0 0 0 0 0 0 0 0 0 0 0 127 0" result="hardAlpha"/>
<feOffset/>
<feGaussianBlur stdDeviation="2"/>
<feComposite in2="hardAlpha" operator="out"/>
<feColorMatrix type="matrix" values="0 0 0 0 0 0 0 0 0 0 0 0 0 0 0 0 0 0 0.25 0"/>
<feBlend mode="normal" in2="BackgroundImageFix" result="effect1_dropShadow_419_816"/>
<feBlend mode="normal" in="SourceGraphic" in2="effect1_dropShadow_419_816" result="shape"/>
</filter>
<linearGradient id="paint0_linear_419_816" x1="61.4836" y1="19.963" x2="47.0239" y2="73.9269" gradientUnits="userSpaceOnUse">
<stop stop-color="#327EBD"/>
<stop offset="1" stop-color="#1565A7"/>
</linearGradient>
<linearGradient id="paint1_linear_419_816" x1="74.7349" y1="43.7576" x2="60.2752" y2="97.7216" gradientUnits="userSpaceOnUse">
<stop stop-color="#FFDA4B"/>
<stop offset="1" stop-color="#F9C600"/>
</linearGradient>
</defs>
</svg>
