<svg width="96" height="94" viewBox="0 0 96 94" fill="none" xmlns="http://www.w3.org/2000/svg">
<g filter="url(#filter0_d_417_783)">
<path d="M57.9884 10.1003C60.1155 10.6744 62.1607 11.4131 64.1051 12.2949L58.2891 34.0006L77.9503 22.8181C79.3441 24.4854 80.591 26.2584 81.6834 28.1228C82.7765 29.9874 83.7146 31.9432 84.4832 33.9655L64.8212 45.1478L86.8102 51.0397C86.6134 53.1392 86.2421 55.2459 85.6782 57.3507L85.6647 57.401C85.1007 59.5058 84.3678 61.5197 83.4885 63.4364L61.4958 57.5434L72.9372 77.0557C71.2604 78.4228 69.4702 79.6475 67.5957 80.7169L67.5912 80.7157C65.7129 81.7841 63.7456 82.7001 61.7103 83.4444L50.27 63.9282L44.454 85.6339C42.3329 85.4264 40.1924 85.0433 38.0631 84.4775L38.0084 84.4629C35.8808 83.888 33.8437 83.1517 31.8993 82.2699L37.7153 60.5642L18.0541 71.7467C15.2661 68.4161 13.0592 64.6442 11.5212 60.5994L31.1822 49.4209L9.19315 43.529C9.38731 41.4246 9.76162 39.3063 10.3256 37.2015L10.3545 37.0934C10.5045 36.5482 10.7194 35.8906 10.9563 35.2142L11.028 35.0108C11.7023 33.1088 12.5148 31.1323 12.5148 31.1323L34.5038 37.0242L23.0672 17.5091C24.7403 16.1411 26.5257 14.9192 28.4029 13.8547L28.4125 13.8489C30.2877 12.7797 32.2578 11.8686 34.2985 11.1216L45.7344 30.6366L51.5504 8.9309C53.6752 9.13945 55.8121 9.52127 57.945 10.0886L57.9884 10.1003ZM50.5109 37.9917L50.475 37.982C47.6764 37.2322 44.8602 37.0208 42.1359 37.2778C40.5531 39.4704 39.33 41.9791 38.586 44.7407L38.5767 44.7755C37.8402 47.539 37.6451 50.3233 37.9233 53.0145C40.1504 54.5982 42.6949 55.8233 45.4935 56.5732L45.5294 56.5828C48.328 57.3327 51.1441 57.544 53.8647 57.286C55.4523 55.0906 56.6744 52.5856 57.4147 49.8231L57.424 49.7883C58.1642 47.0257 58.3593 44.2415 58.0811 41.5503C55.854 39.9666 53.3095 38.7415 50.5109 37.9917Z" fill="#FF4A00"/>
<path d="M49.9575 39.9135C47.7056 39.3101 45.4432 39.0884 43.2367 39.2026C42.043 41.0183 41.113 43.0504 40.5175 45.2609L40.5096 45.2901L40.3886 45.7642C39.8913 47.8203 39.719 49.8829 39.8382 51.8972C41.6891 53.0984 43.759 54.0376 46.0112 54.6411L46.0471 54.6507C48.2987 55.254 50.5601 55.476 52.7629 55.3613C53.96 53.5442 54.8903 51.5157 55.4826 49.3052L55.4919 49.2703C56.0843 47.0595 56.2941 44.8352 56.1656 42.6659C54.3151 41.465 52.2451 40.5265 49.9933 39.9232L49.9575 39.9135ZM61.4598 29.8959L76.9613 21.0792L78.4138 20.2542L79.485 21.5351C80.95 23.2875 82.2603 25.1517 83.4087 27.1117L83.8324 27.8511C84.802 29.5868 85.6453 31.3939 86.3527 33.2549L86.9617 34.8567L85.4719 35.7041L70.0458 44.4773L88.9587 49.545L88.8013 51.2266C88.5942 53.4353 88.2037 55.6527 87.6101 57.8682L87.5967 57.9182C87.003 60.1336 86.2313 62.2537 85.3062 64.2703L84.6017 65.8053L65.6869 60.7371L74.6629 76.0438L75.5295 77.5225L74.2008 78.6062C72.4373 80.0439 70.5558 81.3309 68.5868 82.4542L67.8721 82.8613L67.8561 82.857C66.1032 83.8084 64.2783 84.635 62.3971 85.323L60.8292 85.8957L59.9845 84.4562L50.9639 69.0668L45.9473 87.7892L44.2597 87.6241C42.0312 87.4061 39.7833 87.0041 37.5492 86.4104L37.487 86.3937C35.2541 85.7905 33.1153 85.0169 31.0734 84.0909L29.5282 83.3907L34.5448 64.6683L19.0433 73.485L17.5918 74.3103L16.5203 73.0304C13.5889 69.5284 11.2686 65.5628 9.65167 61.3103L9.04258 59.7084L10.5324 58.8611L25.9557 50.0912L7.04654 45.0245L7.20128 43.3452C7.40576 41.129 7.80024 38.8988 8.39378 36.6837L8.42613 36.563L8.56295 36.0901C8.71023 35.6018 8.88635 35.0742 9.06873 34.5534L9.06974 34.5496L9.14138 34.3464L9.14239 34.3426C9.48991 33.3625 9.87146 32.3701 10.1631 31.6276C10.3093 31.2551 10.4341 30.9427 10.5227 30.723C10.567 30.6133 10.6024 30.5266 10.6268 30.4668C10.6389 30.437 10.648 30.4133 10.6545 30.3974C10.6577 30.3896 10.6606 30.3835 10.6624 30.3793C10.6632 30.3772 10.6634 30.3748 10.6639 30.3736L10.6651 30.3729L10.6653 30.372L11.3337 28.7454L30.3145 33.8313L21.3416 18.5205L20.4765 17.0441L21.8011 15.9604C23.5511 14.5294 25.4179 13.2511 27.3794 12.1361L27.4 12.1234L27.4215 12.111C29.3957 10.9854 31.4675 10.0278 33.611 9.24318L35.1791 8.66953L36.0245 10.1103L45.0409 25.4965L50.0573 6.77506L51.7459 6.94038C53.9772 7.15939 56.2206 7.56039 58.4589 8.15577L58.5098 8.16942L59.3428 8.40374C61.2771 8.96846 63.1444 9.66309 64.9311 10.4734L66.4761 11.1745L61.4598 29.8959Z" stroke="white" stroke-width="4"/>
</g>
<defs>
<filter id="filter0_d_417_783" x="0.900146" y="0.618652" width="94.2078" height="93.3264" filterUnits="userSpaceOnUse" color-interpolation-filters="sRGB">
<feFlood flood-opacity="0" result="BackgroundImageFix"/>
<feColorMatrix in="SourceAlpha" type="matrix" values="0 0 0 0 0 0 0 0 0 0 0 0 0 0 0 0 0 0 127 0" result="hardAlpha"/>
<feOffset/>
<feGaussianBlur stdDeviation="2"/>
<feComposite in2="hardAlpha" operator="out"/>
<feColorMatrix type="matrix" values="0 0 0 0 0 0 0 0 0 0 0 0 0 0 0 0 0 0 0.25 0"/>
<feBlend mode="normal" in2="BackgroundImageFix" result="effect1_dropShadow_417_783"/>
<feBlend mode="normal" in="SourceGraphic" in2="effect1_dropShadow_417_783" result="shape"/>
</filter>
</defs>
</svg>
